{
    "asset" : {
        "generator" : "Khronos glTF Blender I/O v1.8.19",
        "version" : "2.0"
    },
    "scene" : 0,
    "scenes" : [
        {
            "name" : "Scene",
            "nodes" : [
                0,
                1
            ]
        }
    ],
    "nodes" : [
        {
            "mesh" : 0,
            "name" : "\u7403"
        },
        {
            "mesh" : 1,
            "name" : "\u30d9\u30b8\u30a8\u30ab\u30fc\u30d6",
            "rotation" : [
                0.7262400388717651,
                0.5251468420028687,
                0.3620014786720276,
                0.25641968846321106
            ],
            "scale" : [
                0.4452507495880127,
                0.44525063037872314,
                0.44525066018104553
            ],
            "translation" : [
                0.14786958694458008,
                0.8292208313941956,
                0.06381475925445557
            ]
        }
    ],
    "materials" : [
        {
            "doubleSided" : true,
            "name" : "\u30de\u30c6\u30ea\u30a2\u30eb.001",
            "pbrMetallicRoughness" : {
                "metallicFactor" : 0,
                "roughnessFactor" : 0.09999999403953552
            }
        },
        {
            "doubleSided" : true,
            "name" : "\u30de\u30c6\u30ea\u30a2\u30eb.002",
            "pbrMetallicRoughness" : {
                "metallicFactor" : 0,
                "roughnessFactor" : 0.699999988079071
            }
        }
    ],
    "meshes" : [
        {
            "name" : "\u7403",
            "primitives" : [
                {
                    "attributes" : {
                        "POSITION" : 0,
                        "NORMAL" : 1,
                        "TEXCOORD_0" : 2
                    },
                    "indices" : 3,
                    "material" : 0
                }
            ]
        },
        {
            "name" : "\u30d9\u30b8\u30a8\u30ab\u30fc\u30d6",
            "primitives" : [
                {
                    "attributes" : {
                        "POSITION" : 4,
                        "NORMAL" : 5,
                        "TEXCOORD_0" : 6
                    },
                    "indices" : 7,
                    "material" : 1
                }
            ]
        }
    ],
    "accessors" : [
        {
            "bufferView" : 0,
            "componentType" : 5126,
            "count" : 559,
            "max" : [
                0.9004338383674622,
                0.8001459240913391,
                0.9004339575767517
            ],
            "min" : [
                -0.9004334211349487,
                -0.7537670135498047,
                -0.9004338383674622
            ],
            "type" : "VEC3"
        },
        {
            "bufferView" : 1,
            "componentType" : 5126,
            "count" : 559,
            "type" : "VEC3"
        },
        {
            "bufferView" : 2,
            "componentType" : 5126,
            "count" : 559,
            "type" : "VEC2"
        },
        {
            "bufferView" : 3,
            "componentType" : 5123,
            "count" : 2880,
            "type" : "SCALAR"
        },
        {
            "bufferView" : 4,
            "componentType" : 5126,
            "count" : 195,
            "max" : [
                0.7776482105255127,
                0.2016487866640091,
                0.24804425239562988
            ],
            "min" : [
                -1.0587506294250488,
                -0.10246503353118896,
                -0.30541759729385376
            ],
            "type" : "VEC3"
        },
        {
            "bufferView" : 5,
            "componentType" : 5126,
            "count" : 195,
            "type" : "VEC3"
        },
        {
            "bufferView" : 6,
            "componentType" : 5126,
            "count" : 195,
            "type" : "VEC2"
        },
        {
            "bufferView" : 7,
            "componentType" : 5123,
            "count" : 1038,
            "type" : "SCALAR"
        }
    ],
    "bufferViews" : [
        {
            "buffer" : 0,
            "byteLength" : 6708,
            "byteOffset" : 0
        },
        {
            "buffer" : 0,
            "byteLength" : 6708,
            "byteOffset" : 6708
        },
        {
            "buffer" : 0,
            "byteLength" : 4472,
            "byteOffset" : 13416
        },
        {
            "buffer" : 0,
            "byteLength" : 5760,
            "byteOffset" : 17888
        },
        {
            "buffer" : 0,
            "byteLength" : 2340,
            "byteOffset" : 23648
        },
        {
            "buffer" : 0,
            "byteLength" : 2340,
            "byteOffset" : 25988
        },
        {
            "buffer" : 0,
            "byteLength" : 1560,
            "byteOffset" : 28328
        },
        {
            "buffer" : 0,
            "byteLength" : 2076,
            "byteOffset" : 29888
        }
    ],
    "buffers" : [
        {
            "byteLength" : 31964,
            "uri" : "appleModel.bin"
        }
    ]
}
